<svg width="82" height="82" viewBox="0 0 82 82" fill="none" xmlns="http://www.w3.org/2000/svg">
<path fill-rule="evenodd" clip-rule="evenodd" d="M0.375 41C0.375 18.5625 18.5625 0.375 41 0.375C63.4375 0.375 81.625 18.5625 81.625 41C81.625 63.4375 63.4375 81.625 41 81.625C18.5625 81.625 0.375 63.4375 0.375 41ZM47.7833 24.6792C44.075 21.4417 37.925 21.4417 34.2208 24.6792C33.597 25.2251 32.7819 25.5008 31.9548 25.4457C31.1277 25.3906 30.3563 25.0092 29.8104 24.3854C29.2645 23.7616 28.9888 22.9465 29.0439 22.1194C29.099 21.2923 29.4804 20.5209 30.1042 19.975C36.1625 14.675 45.8375 14.675 51.8958 19.975C58.2 25.4917 58.2 34.6333 51.8958 40.15C50.8415 41.0693 49.6685 41.8429 48.4083 42.45C45.5917 43.8167 44.125 45.675 44.125 47.25V50.375C44.125 51.2038 43.7958 51.9987 43.2097 52.5847C42.6237 53.1708 41.8288 53.5 41 53.5C40.1712 53.5 39.3763 53.1708 38.7903 52.5847C38.2042 51.9987 37.875 51.2038 37.875 50.375V47.25C37.875 41.9208 42.2917 38.4708 45.6875 36.825C46.4458 36.4583 47.15 35.9958 47.7833 35.4458C51.2417 32.4167 51.2417 27.7083 47.7833 24.6792ZM41 66C41.8288 66 42.6237 65.6708 43.2097 65.0847C43.7958 64.4987 44.125 63.7038 44.125 62.875C44.125 62.0462 43.7958 61.2513 43.2097 60.6653C42.6237 60.0792 41.8288 59.75 41 59.75C40.1712 59.75 39.3763 60.0792 38.7903 60.6653C38.2042 61.2513 37.875 62.0462 37.875 62.875C37.875 63.7038 38.2042 64.4987 38.7903 65.0847C39.3763 65.6708 40.1712 66 41 66Z" fill="#343CED"/>
</svg>
