<svg width="21" height="21" viewBox="0 0 21 21" fill="none" xmlns="http://www.w3.org/2000/svg">
<g clip-path="url(#clip0_1193_219)">
<path d="M9.55469 20.6001C7.83228 20.6001 6.42969 19.1984 6.42969 17.4751C6.42969 17.1301 6.70969 16.8501 7.05469 16.8501C7.39969 16.8501 7.67969 17.1301 7.67969 17.4751C7.67969 18.5093 8.52136 19.3501 9.55469 19.3501C10.588 19.3501 11.4297 18.5093 11.4297 17.4751C11.4297 17.1301 11.7097 16.8501 12.0547 16.8501C12.3997 16.8501 12.6797 17.1301 12.6797 17.4751C12.6797 19.1984 11.2773 20.6001 9.55469 20.6001Z" fill="#FE5C73"/>
<path d="M16.429 18.1001H2.67899C1.87485 18.1001 1.2207 17.446 1.2207 16.6418C1.2207 16.215 1.40656 15.811 1.73065 15.5334C1.75156 15.5151 1.77399 15.4985 1.79733 15.4834C3.02063 14.4159 3.7207 12.8801 3.7207 11.2584V8.93338C3.7207 5.71683 6.3382 3.1001 9.55399 3.1001C9.68735 3.1001 9.83154 3.10254 9.9649 3.12512C10.3056 3.18173 10.5357 3.5043 10.479 3.84427C10.4224 4.18423 10.094 4.41434 9.75983 4.35757C9.69315 4.34674 9.6199 4.3501 9.55399 4.3501C7.02744 4.3501 4.9707 6.40591 4.9707 8.93338V11.2584C4.9707 13.2718 4.08813 15.1768 2.55157 16.4842C2.53906 16.4943 2.52823 16.5034 2.5148 16.5126C2.49237 16.541 2.4707 16.5843 2.4707 16.6418C2.4707 16.755 2.56577 16.8501 2.67899 16.8501H16.429C16.5424 16.8501 16.6374 16.755 16.6374 16.6418C16.6374 16.5834 16.6158 16.541 16.5924 16.5126C16.5799 16.5034 16.5691 16.4943 16.5565 16.4842C15.0191 15.1759 14.1374 13.2718 14.1374 11.2584V10.3502C14.1374 10.0052 14.4174 9.72516 14.7624 9.72516C15.1074 9.72516 15.3874 10.0052 15.3874 10.3502V11.2584C15.3874 12.881 16.0883 14.4175 17.3132 15.486C17.3357 15.5009 17.3573 15.5168 17.3773 15.5343C17.7016 15.811 17.8874 16.215 17.8874 16.6418C17.8874 17.446 17.2333 18.1001 16.429 18.1001Z" fill="#FE5C73"/>
<path d="M15.3874 8.93338C13.0899 8.93338 11.2207 7.06433 11.2207 4.76682C11.2207 2.4693 13.0899 0.600098 15.3874 0.600098C17.6849 0.600098 19.554 2.4693 19.554 4.76682C19.554 7.06433 17.6849 8.93338 15.3874 8.93338ZM15.3874 1.8501C13.779 1.8501 12.4707 3.15839 12.4707 4.76682C12.4707 6.37509 13.779 7.68338 15.3874 7.68338C16.9957 7.68338 18.304 6.37509 18.304 4.76682C18.304 3.15839 16.9957 1.8501 15.3874 1.8501Z" fill="#FE5C73"/>
</g>
<defs>
<clipPath id="clip0_1193_219">
<rect width="20" height="20" fill="white" transform="translate(0.400391 0.600098)"/>
</clipPath>
</defs>
</svg>
