<svg width="21" height="19" viewBox="0 0 21 19" fill="none" xmlns="http://www.w3.org/2000/svg">
<mask id="mask0_767_6061" style="mask-type:luminance" maskUnits="userSpaceOnUse" x="0" y="0" width="21" height="19">
<path d="M0.320312 0.741211H20.2266V18.2587H0.320312V0.741211Z" fill="white"/>
</mask>
<g mask="url(#mask0_767_6061)">
<path d="M18.1584 0.741211H1.3544C0.785637 0.741211 0.320312 1.15828 0.320312 1.66807V3.33639C0.320312 3.84617 0.785637 4.26325 1.3544 4.26325H18.1067C18.6754 4.26325 19.1408 3.84617 19.1408 3.33639V1.66807C19.1925 1.15828 18.7271 0.741211 18.1584 0.741211ZM18.1584 10.0561H1.3544C0.785637 10.0561 0.320312 10.4731 0.320312 10.9829V12.6512C0.320312 13.161 0.785637 13.5781 1.3544 13.5781H18.1067C18.6754 13.5781 19.1408 13.161 19.1408 12.6512V10.9829C19.1925 10.4731 18.7271 10.0561 18.1584 10.0561ZM10.8163 14.7367H1.3544C0.785637 14.7367 0.320312 15.1537 0.320312 15.6635V17.3319C0.320312 17.8416 0.785637 18.2587 1.3544 18.2587H10.8163C11.3851 18.2587 11.8504 17.8416 11.8504 17.3319V15.6635C11.8504 15.1537 11.3851 14.7367 10.8163 14.7367ZM19.1925 5.42182H1.3544C0.785637 5.42182 0.320312 5.83889 0.320312 6.34864V8.017C0.320312 8.52675 0.785637 8.94385 1.3544 8.94385H19.1925C19.7612 8.94385 20.2266 8.52675 20.2266 8.017V6.34864C20.2266 5.83889 19.7612 5.42182 19.1925 5.42182Z" fill="#0BA4DB"/>
</g>
</svg>
