<svg width="21" height="21" viewBox="0 0 21 21" fill="none" xmlns="http://www.w3.org/2000/svg">
<path d="M14.1892 4.25346C13.6967 4.25346 13.4504 4.25346 13.226 4.17022C13.1949 4.15865 13.1642 4.14594 13.134 4.13208C12.9165 4.0323 12.7424 3.85817 12.394 3.5099C11.5925 2.70832 11.1917 2.30753 10.6985 2.27057C10.6323 2.2656 10.5656 2.2656 10.4994 2.27057C10.0062 2.30753 9.60537 2.70832 8.80383 3.5099C8.45557 3.85817 8.28143 4.0323 8.06393 4.13208C8.03372 4.14594 8.00301 4.15865 7.97185 4.17022C7.7475 4.25346 7.50123 4.25346 7.00872 4.25346H6.91787C5.66127 4.25346 5.03298 4.25346 4.64262 4.64384C4.25224 5.0342 4.25224 5.6625 4.25224 6.91909V7.00994C4.25224 7.50245 4.25224 7.74872 4.169 7.97307C4.15743 8.00423 4.14472 8.03495 4.13086 8.06515C4.03108 8.28265 3.85695 8.45679 3.50867 8.80505C2.7071 9.6066 2.30631 10.0074 2.26935 10.5006C2.26438 10.5668 2.26438 10.6335 2.26935 10.6998C2.30631 11.1929 2.7071 11.5937 3.50867 12.3953C3.85695 12.7436 4.03108 12.9177 4.13086 13.1352C4.14472 13.1654 4.15743 13.1961 4.169 13.2273C4.25224 13.4516 4.25224 13.6979 4.25224 14.1904V14.2813C4.25224 15.5378 4.25224 16.1662 4.64262 16.5565C5.03298 16.9469 5.66127 16.9469 6.91787 16.9469H7.00872C7.50123 16.9469 7.7475 16.9469 7.97185 17.0302C8.00301 17.0417 8.03372 17.0544 8.06393 17.0683C8.28143 17.1681 8.45557 17.3422 8.80383 17.6904C9.60537 18.492 10.0062 18.8928 10.4994 18.9298C10.5656 18.9348 10.6322 18.9348 10.6985 18.9298C11.1917 18.8928 11.5925 18.492 12.394 17.6904C12.7424 17.3422 12.9165 17.1681 13.134 17.0683C13.1642 17.0544 13.1949 17.0417 13.226 17.0302C13.4504 16.9469 13.6967 16.9469 14.1892 16.9469H14.28C15.5366 16.9469 16.165 16.9469 16.5553 16.5565C16.9457 16.1662 16.9457 15.5378 16.9457 14.2813V14.1904C16.9457 13.6979 16.9457 13.4516 17.029 13.2273C17.0405 13.1961 17.0532 13.1654 17.067 13.1352C17.1669 12.9177 17.341 12.7436 17.6892 12.3953C18.4908 11.5937 18.8916 11.1929 18.9285 10.6998C18.9335 10.6334 18.9335 10.5668 18.9285 10.5006C18.8916 10.0074 18.4908 9.6066 17.6892 8.80505C17.341 8.45679 17.1669 8.28265 17.067 8.06515C17.0532 8.03495 17.0405 8.00423 17.029 7.97307C16.9457 7.74872 16.9457 7.50245 16.9457 7.00994V6.91909C16.9457 5.6625 16.9457 5.0342 16.5553 4.64384C16.165 4.25346 15.5366 4.25346 14.28 4.25346H14.1892Z" stroke="#5C5C5C" stroke-width="1.25"/>
<path d="M13.5169 10.6C13.5169 12.2108 12.2111 13.5167 10.6003 13.5167C8.98943 13.5167 7.68359 12.2108 7.68359 10.6C7.68359 8.98918 8.98943 7.68335 10.6003 7.68335C12.2111 7.68335 13.5169 8.98918 13.5169 10.6Z" stroke="#5C5C5C" stroke-width="1.25"/>
</svg>
